<svg xmlns="http://www.w3.org/2000/svg" viewBox="0 0 100 100" fill="#ffffff" width="30" height="30"><path d="M73.67,44.18V83.44a1.34,1.34,0,0,1-1.34,1.34H27.67a1.34,1.34,0,0,1-1.34-1.34V27.67a1.34,1.34,0,0,1,1.34-1.34H59.46A8.63,8.63,0,0,1,56.55,21a7.82,7.82,0,0,1,1.71-6.19c2.07-2.44,5.1-4.67,5.91-5.56H27.11A6.79,6.79,0,0,0,20.33,16V84a6.79,6.79,0,0,0,6.78,6.78H72.89A6.79,6.79,0,0,0,79.67,84V44.18a6.3,6.3,0,0,1-6,0Z"></path><path d="M76.24,3.36c-.92,5.09-3.69,15.07-11.37,17.2a.42.42,0,0,0,0,.82c7.68,2.13,10.45,12.11,11.37,17.2a.43.43,0,0,0,.85,0c.92-5.09,3.69-15.07,11.38-17.2a.43.43,0,0,0,0-.82C80.78,18.43,78,8.45,77.09,3.36A.43.43,0,0,0,76.24,3.36Z"></path></svg>