<svg id="Layer_1" data-name="Layer 1" xmlns="http://www.w3.org/2000/svg" viewBox="0 0 1920 1920" alt="standard"><defs><style>.cls-1{fill:#86693b;}</style></defs><path class="cls-1" d="M199,1211.33c18-17.68,39.82-32.89,53.27-53.47C313.82,1063.7,373,968,427.08,882.31c40,7,63.8,16.87,85.68,13.71,42.3-6.13,101-42.08,122-26,75.41,57.42,142.1,128.09,202.43,201.53,15.23,18.54-1.75,67-10.65,99.91-10,37-29.33,71.43-41.54,108-23,69-14.23,144,48.72,174.74,51.35,25,128.86,25.6,184.45,6.92,71.82-24.14,105.48-103.62,79.24-170.75-34.67-88.69-86-176-149.35-247.09C898.59,987.67,893.35,947.4,925,887.47,988.18,767.54,1076.36,676,1203.69,621.7c20-8.52,30.71-38.17,43.17-54.66,60.91,10.59,130.44,19,197.57,36.4,22.79,5.91,39.58,34.55,59.08,52.84,61.15,57.38,121.86,115.22,184,171.55,7.2,6.53,22.14,4.7,33.49,6.74v35.89c-144.48,156.76-273.48,18.65-404.06-26.09-32.84-11.25-51.24-63.8-86.57-111.17-3,33-7,69.9-9.31,106.92-.8,13,9.11,32.76,3.31,38.27-68,64.48-11.58,106.08,26.66,150.43,72.33,83.87,148.07,165,217.35,251.24,48.66,60.57,43.39,125.55-1.75,190.08-104,148.75-244.67,245.83-419.27,294.27-182.38,50.6-420.69-46.81-521-206.1-51.34-81.52-58.89-152.92,1.77-237.78,54-75.57,91-164,128.84-249.65,23.48-53.14-11.8-80.19-64.34-96.38,56.52,63.15,19,101.06-26.36,137.82-49,39.73-97.32,80.3-146.42,119.93-18.21,14.69-36,31.93-57.07,40.71C298,1299.9,246.05,1271.79,199,1229.27Z"></path><path class="cls-1" d="M1032.47,117l432.78,239.71c-39.57,108.38-106.13,140.57-222,122.08-50.42-8.05-100.4-19.22-150.21-30.55C977.37,421.88,971.51,413.74,986.5,284.35c-23.84,32.87-48.15,51.08-46.76,67.12,5.73,66.39-19.71,113.18-68.37,156.68-10.62,9.5-.72,57.45,14.4,75.93,31.59,38.62,73,69.39,111.13,104.12C949.84,757.71,903.18,826.62,845.37,912,770.62,836.83,695.8,765.8,626,690.26c-88.81-96-78.42-192.85,26.53-290.1l-73.57-6.88q-4.3-9.24-8.6-18.47L815.57,240l-64.49-27.45-1.81-22,284.91-18.31L996.24,117Z"></path></svg>